<svg xmlns="http://www.w3.org/2000/svg" version="1.1" xmlns:xlink="http://www.w3.org/1999/xlink" xmlns:svgjs="http://svgjs.dev/svgjs" width="2000" height="287" viewBox="0 0 2000 287"><g transform="matrix(1,0,0,1,-1.2121212121212466,0.9631512290444846)"><svg viewBox="0 0 396 57" data-background-color="#ffffff" preserveAspectRatio="xMidYMid meet" height="287" width="2000" xmlns="http://www.w3.org/2000/svg" xmlns:xlink="http://www.w3.org/1999/xlink"><g id="tight-bounds" transform="matrix(1,0,0,1,0.2400000000000091,-0.19128787475796116)"><svg viewBox="0 0 395.52 57.382575749515915" height="57.382575749515915" width="395.52"><g><svg viewBox="0 0 492.34889344817105 71.43064237833742" height="57.382575749515915" width="395.52"><g></g><g transform="matrix(1,0,0,1,96.82889344817107,0.17768816512023733)"><svg viewBox="0 0 395.52 71.07526604809695" height="71.07526604809695" width="395.52"><g id="textblocktransform"><svg viewBox="0 0 395.52 71.07526604809695" height="71.07526604809695" width="395.52" id="textblock"><g><svg viewBox="0 0 395.52 71.07526604809695" height="71.07526604809695" width="395.52"><g transform="matrix(1,0,0,1,0,0)"><svg width="395.52" viewBox="1 -37.45 265.17 47.45" height="71.07526604809695" data-palette-color="url(#65a7e8c7-525a-4cab-8694-d0cd5a2e84f5)"></svg></g></svg></g></svg></g></svg></g><g transform="matrix(1,0,0,1,0,0.17768816512023733)"><svg viewBox="0 0 56.86092359113805 71.07526604809695" height="71.07526604809695" width="56.86092359113805"><g><svg version="1.1" xmlns="http://www.w3.org/2000/svg" xmlns:xlink="http://www.w3.org/1999/xlink" x="0" y="0" viewBox="0 0 80.001 100" enable-background="new 0 0 80.001 100" xml:space="preserve" width="56.86092359113805" height="71.07526604809695" class="icon-icon-0" data-fill-palette-color="accent" id="icon-0"></svg></g></svg></g></svg></g><defs></defs><mask id="aa25c1d6-9c68-49d2-814a-891693d4e7d4"><g id="SvgjsG2156"><svg viewBox="0 0 395.52 57.382575749515915" height="57.382575749515915" width="395.52"><g><svg viewBox="0 0 492.34889344817105 71.43064237833742" height="57.382575749515915" width="395.52"><g><rect width="6.409640841891944" height="71.43064237833742" x="73.64008809870859" y="0" fill="white" opacity="1" stroke-width="0" stroke="transparent" fill-opacity="1" class="rect-qz-0" rx="1%" id="SvgjsRect2155" data-palette-color="url(#65a7e8c7-525a-4cab-8694-d0cd5a2e84f5)"></rect></g><g transform="matrix(1,0,0,1,96.82889344817107,0.17768816512023733)"><svg viewBox="0 0 395.52 71.07526604809695" height="71.07526604809695" width="395.52"><g id="SvgjsG2154"><svg viewBox="0 0 395.52 71.07526604809695" height="71.07526604809695" width="395.52" id="SvgjsSvg2153"><g><svg viewBox="0 0 395.52 71.07526604809695" height="71.07526604809695" width="395.52"><g transform="matrix(1,0,0,1,0,0)"><svg width="395.52" viewBox="1 -37.45 265.17 47.45" height="71.07526604809695" data-palette-color="url(#65a7e8c7-525a-4cab-8694-d0cd5a2e84f5)"><path d="M4.3 0L4.3-20.8 1-20.8 1-26.25 4.3-26.25 4.3-29.35Q4.3-33.25 6.05-35.13 7.8-37 11.45-37L11.45-37 16.05-37 16.05-31.55 11.3-31.55 11.3-26.25 16.05-26.25 16.05-20.8 11.3-20.8 11.3 0 4.3 0ZM24.25-29.45L24.25-29.45Q22.1-29.45 21.12-30.38 20.15-31.3 20.15-32.9L20.15-32.9 20.15-34Q20.15-35.6 21.12-36.52 22.1-37.45 24.25-37.45L24.25-37.45Q26.4-37.45 27.37-36.52 28.35-35.6 28.35-34L28.35-34 28.35-32.9Q28.35-31.3 27.37-30.38 26.4-29.45 24.25-29.45ZM20.75 0L20.75-26.25 27.75-26.25 27.75 0 20.75 0ZM43.8 0L40.64 0Q36.99 0 35.42-1.63 33.84-3.25 33.84-6.6L33.84-6.6 33.84-37 40.84-37 40.84-5.45 43.8-5.45 43.8 0ZM54.69 0L47.69 0 47.69-26.25 54.69-26.25 54.69-21.8 55.49-21.8Q55.79-22.85 56.32-23.75 56.84-24.65 57.57-25.35 58.29-26.05 59.29-26.45 60.29-26.85 61.59-26.85L61.59-26.85Q64.14-26.85 65.64-25.48 67.14-24.1 67.84-21.55L67.84-21.55 68.49-21.55Q69.34-24.3 71.17-25.58 72.99-26.85 75.39-26.85L75.39-26.85Q78.74-26.85 80.52-24.45 82.29-22.05 82.29-17.85L82.29-17.85 82.29 0 75.29 0 75.29-16.5Q75.29-21.15 72.24-21.15L72.24-21.15Q70.69-21.15 69.59-20.18 68.49-19.2 68.49-17.45L68.49-17.45 68.49 0 61.49 0 61.49-16.5Q61.49-21.15 58.44-21.15L58.44-21.15Q56.89-21.15 55.79-20.18 54.69-19.2 54.69-17.45L54.69-17.45 54.69 0ZM98.89 4.55L98.89-26.25 105.89-26.25 105.89 3.4Q105.89 6.75 104.31 8.38 102.74 10 99.09 10L99.09 10 95.39 10 95.39 4.55 98.89 4.55ZM102.39-29.45L102.39-29.45Q100.24-29.45 99.26-30.38 98.29-31.3 98.29-32.9L98.29-32.9 98.29-34Q98.29-35.6 99.26-36.52 100.24-37.45 102.39-37.45L102.39-37.45Q104.54-37.45 105.51-36.52 106.49-35.6 106.49-34L106.49-34 106.49-32.9Q106.49-31.3 105.51-30.38 104.54-29.45 102.39-29.45ZM125.89 0L125.89-4.45 125.09-4.45Q124.79-3.4 124.26-2.5 123.74-1.6 122.99-0.9 122.24-0.2 121.24 0.2 120.24 0.6 118.89 0.6L118.89 0.6Q115.39 0.6 113.54-1.78 111.69-4.15 111.69-8.4L111.69-8.4 111.69-26.25 118.69-26.25 118.69-9.75Q118.69-5.1 121.94-5.1L121.94-5.1Q123.54-5.1 124.71-6.08 125.89-7.05 125.89-8.8L125.89-8.8 125.89-26.25 132.89-26.25 132.89 0 125.89 0ZM145.98 0L138.98 0 138.98-26.25 145.98-26.25 145.98-21.8 146.78-21.8Q147.08-22.85 147.58-23.75 148.08-24.65 148.83-25.35 149.58-26.05 150.58-26.45 151.58-26.85 152.88-26.85L152.88-26.85Q156.43-26.85 158.31-24.48 160.18-22.1 160.18-17.85L160.18-17.85 160.18 0 153.18 0 153.18-16.5Q153.18-21.15 149.93-21.15L149.93-21.15Q148.33-21.15 147.16-20.18 145.98-19.2 145.98-17.45L145.98-17.45 145.98 0ZM175.58 0.6L175.58 0.6Q170.08 0.6 167.28-2.75 164.48-6.1 164.48-13.1L164.48-13.1Q164.48-20.1 167.28-23.48 170.08-26.85 175.58-26.85L175.58-26.85Q179.48-26.85 181.81-25.08 184.13-23.3 185.13-20.05L185.13-20.05 179.48-17.55Q179.23-19.45 178.33-20.38 177.43-21.3 175.58-21.3L175.58-21.3Q171.78-21.3 171.78-16.8L171.78-16.8 171.78-9.45Q171.78-4.95 175.58-4.95L175.58-4.95Q177.48-4.95 178.41-5.93 179.33-6.9 179.78-8.9L179.78-8.9 185.23-6.5Q183.08 0.6 175.58 0.6ZM201.73 0L197.48 0Q193.88 0 192.25-1.6 190.63-3.2 190.63-6.7L190.63-6.7 190.63-20.8 187.33-20.8 187.33-26.25 188.93-26.25Q190.33-26.25 190.83-26.85 191.33-27.45 191.33-28.8L191.33-28.8 191.33-33.35 197.63-33.35 197.63-26.25 202.23-26.25 202.23-20.8 197.63-20.8 197.63-5.45 201.73-5.45 201.73 0ZM209.98-29.45L209.98-29.45Q207.83-29.45 206.85-30.38 205.88-31.3 205.88-32.9L205.88-32.9 205.88-34Q205.88-35.6 206.85-36.52 207.83-37.45 209.98-37.45L209.98-37.45Q212.13-37.45 213.1-36.52 214.08-35.6 214.08-34L214.08-34 214.08-32.9Q214.08-31.3 213.1-30.38 212.13-29.45 209.98-29.45ZM206.48 0L206.48-26.25 213.48-26.25 213.48 0 206.48 0ZM229.22 0.6L229.22 0.6Q223.72 0.6 220.9-2.75 218.07-6.1 218.07-13.1L218.07-13.1Q218.07-20.1 220.9-23.48 223.72-26.85 229.22-26.85L229.22-26.85Q234.72-26.85 237.55-23.48 240.37-20.1 240.37-13.1L240.37-13.1Q240.37-6.1 237.55-2.75 234.72 0.6 229.22 0.6ZM229.22-4.95L229.22-4.95Q233.07-4.95 233.07-9.45L233.07-9.45 233.07-16.8Q233.07-21.3 229.22-21.3L229.22-21.3Q225.37-21.3 225.37-16.8L225.37-16.8 225.37-9.45Q225.37-4.95 229.22-4.95ZM251.97 0L244.97 0 244.97-26.25 251.97-26.25 251.97-21.8 252.77-21.8Q253.07-22.85 253.57-23.75 254.07-24.65 254.82-25.35 255.57-26.05 256.57-26.45 257.57-26.85 258.87-26.85L258.87-26.85Q262.42-26.85 264.3-24.48 266.17-22.1 266.17-17.85L266.17-17.85 266.17 0 259.17 0 259.17-16.5Q259.17-21.15 255.92-21.15L255.92-21.15Q254.32-21.15 253.15-20.18 251.97-19.2 251.97-17.45L251.97-17.45 251.97 0Z" opacity="1" transform="matrix(1,0,0,1,0,0)" fill="white" class="wordmark-text-0" id="SvgjsPath2152"></path></svg></g></svg></g></svg></g></svg></g><g transform="matrix(1,0,0,1,0,0.17768816512023733)"><svg viewBox="0 0 56.86092359113805 71.07526604809695" height="71.07526604809695" width="56.86092359113805"><g><svg version="1.1" xmlns="http://www.w3.org/2000/svg" xmlns:xlink="http://www.w3.org/1999/xlink" x="0" y="0" viewBox="0 0 80.001 100" enable-background="new 0 0 80.001 100" xml:space="preserve" width="56.86092359113805" height="71.07526604809695" class="icon-icon-0" data-fill-palette-color="accent" id="SvgjsSvg2151"><path d="M64.001 40v2H64h-7v-8h-3.714C60.104 31.608 65 25.134 65 17.5 65 7.835 57.165 0 47.5 0c-6.378 0-11.941 3.423-15 8.52C29.441 3.423 23.878 0 17.5 0 7.835 0 0 7.835 0 17.5 0 25.134 4.896 31.608 11.714 34H8v11H2v6h6v11h20v2h-5v4h3.14l-22.6 32h4.908l22.588-32h3.104l-22.6 32h4.908l22.588-32H42v-4h-5v-2h20v-8h7 0.001v2h16V40H64.001zM23.286 34c3.882-1.361 7.129-4.046 9.214-7.52 2.085 3.474 5.332 6.158 9.214 7.52H23.286z" fill="black"></path></svg></g></svg></g></svg></g><defs><mask></mask></defs></svg><rect width="395.52" height="57.382575749515915" fill="black" stroke="none" visibility="hidden"></rect></g></mask><linearGradient x1="0" x2="1" y1="0.578" y2="0.595" id="65a7e8c7-525a-4cab-8694-d0cd5a2e84f5"><stop stop-color="#6ee2f5" offset="0"></stop><stop stop-color="#6454f0" offset="1"></stop></linearGradient><rect width="395.52" height="57.382575749515915" fill="url(#65a7e8c7-525a-4cab-8694-d0cd5a2e84f5)" mask="url(#aa25c1d6-9c68-49d2-814a-891693d4e7d4)" data-fill-palette-color="primary"></rect><mask id="79ed4bc0-cbc8-4305-bf38-1508cd664ece"><g id="SvgjsG2166"><svg viewBox="0 0 395.52 57.382575749515915" height="57.382575749515915" width="395.52"><g><svg viewBox="0 0 492.34889344817105 71.43064237833742" height="57.382575749515915" width="395.52"><g></g><g transform="matrix(1,0,0,1,96.82889344817107,0.17768816512023733)"><svg viewBox="0 0 395.52 71.07526604809695" height="71.07526604809695" width="395.52"><g id="SvgjsG2165"><svg viewBox="0 0 395.52 71.07526604809695" height="71.07526604809695" width="395.52" id="SvgjsSvg2164"><g><svg viewBox="0 0 395.52 71.07526604809695" height="71.07526604809695" width="395.52"><g transform="matrix(1,0,0,1,0,0)"><svg width="395.52" viewBox="1 -37.45 265.17 47.45" height="71.07526604809695" data-palette-color="url(#65a7e8c7-525a-4cab-8694-d0cd5a2e84f5)"></svg></g></svg></g></svg></g></svg></g><g transform="matrix(1,0,0,1,0,0.17768816512023733)"><svg viewBox="0 0 56.86092359113805 71.07526604809695" height="71.07526604809695" width="56.86092359113805"><g><svg version="1.1" xmlns="http://www.w3.org/2000/svg" xmlns:xlink="http://www.w3.org/1999/xlink" x="0" y="0" viewBox="0 0 80.001 100" enable-background="new 0 0 80.001 100" xml:space="preserve" width="56.86092359113805" height="71.07526604809695" class="icon-icon-0" data-fill-palette-color="accent" id="SvgjsSvg2163"><path d="M64.001 40v2H64h-7v-8h-3.714C60.104 31.608 65 25.134 65 17.5 65 7.835 57.165 0 47.5 0c-6.378 0-11.941 3.423-15 8.52C29.441 3.423 23.878 0 17.5 0 7.835 0 0 7.835 0 17.5 0 25.134 4.896 31.608 11.714 34H8v11H2v6h6v11h20v2h-5v4h3.14l-22.6 32h4.908l22.588-32h3.104l-22.6 32h4.908l22.588-32H42v-4h-5v-2h20v-8h7 0.001v2h16V40H64.001zM23.286 34c3.882-1.361 7.129-4.046 9.214-7.52 2.085 3.474 5.332 6.158 9.214 7.52H23.286z" fill="white"></path></svg></g></svg></g></svg></g><defs><mask></mask></defs><mask><g id="SvgjsG2162"><svg viewBox="0 0 395.52 57.382575749515915" height="57.382575749515915" width="395.52"><g><svg viewBox="0 0 492.34889344817105 71.43064237833742" height="57.382575749515915" width="395.52"><g><rect width="6.409640841891944" height="71.43064237833742" x="73.64008809870859" y="0" fill="black" opacity="1" stroke-width="0" stroke="transparent" fill-opacity="1" class="rect-qz-0" rx="1%" id="SvgjsRect2161" data-palette-color="url(#65a7e8c7-525a-4cab-8694-d0cd5a2e84f5)"></rect></g><g transform="matrix(1,0,0,1,96.82889344817107,0.17768816512023733)"><svg viewBox="0 0 395.52 71.07526604809695" height="71.07526604809695" width="395.52"><g id="SvgjsG2160"><svg viewBox="0 0 395.52 71.07526604809695" height="71.07526604809695" width="395.52" id="SvgjsSvg2159"><g><svg viewBox="0 0 395.52 71.07526604809695" height="71.07526604809695" width="395.52"><g transform="matrix(1,0,0,1,0,0)"><svg width="395.52" viewBox="1 -37.45 265.17 47.45" height="71.07526604809695" data-palette-color="url(#65a7e8c7-525a-4cab-8694-d0cd5a2e84f5)"><path d="M4.3 0L4.3-20.8 1-20.8 1-26.25 4.3-26.25 4.3-29.35Q4.3-33.25 6.05-35.13 7.8-37 11.45-37L11.45-37 16.05-37 16.05-31.55 11.3-31.55 11.3-26.25 16.05-26.25 16.05-20.8 11.3-20.8 11.3 0 4.3 0ZM24.25-29.45L24.25-29.45Q22.1-29.45 21.12-30.38 20.15-31.3 20.15-32.9L20.15-32.9 20.15-34Q20.15-35.6 21.12-36.52 22.1-37.45 24.25-37.45L24.25-37.45Q26.4-37.45 27.37-36.52 28.35-35.6 28.35-34L28.35-34 28.35-32.9Q28.35-31.3 27.37-30.38 26.4-29.45 24.25-29.45ZM20.75 0L20.75-26.25 27.75-26.25 27.75 0 20.75 0ZM43.8 0L40.64 0Q36.99 0 35.42-1.63 33.84-3.25 33.84-6.6L33.84-6.6 33.84-37 40.84-37 40.84-5.45 43.8-5.45 43.8 0ZM54.69 0L47.69 0 47.69-26.25 54.69-26.25 54.69-21.8 55.49-21.8Q55.79-22.85 56.32-23.75 56.84-24.65 57.57-25.35 58.29-26.05 59.29-26.45 60.29-26.85 61.59-26.85L61.59-26.85Q64.14-26.85 65.64-25.48 67.14-24.1 67.84-21.55L67.84-21.55 68.49-21.55Q69.34-24.3 71.17-25.58 72.99-26.85 75.39-26.85L75.39-26.85Q78.74-26.85 80.52-24.45 82.29-22.05 82.29-17.85L82.29-17.85 82.29 0 75.29 0 75.29-16.5Q75.29-21.15 72.24-21.15L72.24-21.15Q70.69-21.15 69.59-20.18 68.49-19.2 68.49-17.45L68.49-17.45 68.49 0 61.49 0 61.49-16.5Q61.49-21.15 58.44-21.15L58.44-21.15Q56.89-21.15 55.79-20.18 54.69-19.2 54.69-17.45L54.69-17.45 54.69 0ZM98.89 4.55L98.89-26.25 105.89-26.25 105.89 3.4Q105.89 6.75 104.31 8.38 102.74 10 99.09 10L99.09 10 95.39 10 95.39 4.55 98.89 4.55ZM102.39-29.45L102.39-29.45Q100.24-29.45 99.26-30.38 98.29-31.3 98.29-32.9L98.29-32.9 98.29-34Q98.29-35.6 99.26-36.52 100.24-37.45 102.39-37.45L102.39-37.45Q104.54-37.45 105.51-36.52 106.49-35.6 106.49-34L106.49-34 106.49-32.9Q106.49-31.3 105.51-30.38 104.54-29.45 102.39-29.45ZM125.89 0L125.89-4.45 125.09-4.45Q124.79-3.4 124.26-2.5 123.74-1.6 122.99-0.9 122.24-0.2 121.24 0.2 120.24 0.6 118.89 0.6L118.89 0.6Q115.39 0.6 113.54-1.78 111.69-4.15 111.69-8.4L111.69-8.4 111.69-26.25 118.69-26.25 118.69-9.75Q118.69-5.1 121.94-5.1L121.94-5.1Q123.54-5.1 124.71-6.08 125.89-7.05 125.89-8.8L125.89-8.8 125.89-26.25 132.89-26.25 132.89 0 125.89 0ZM145.98 0L138.98 0 138.98-26.25 145.98-26.25 145.98-21.8 146.78-21.8Q147.08-22.85 147.58-23.75 148.08-24.65 148.83-25.35 149.58-26.05 150.58-26.45 151.58-26.85 152.88-26.85L152.88-26.85Q156.43-26.85 158.31-24.48 160.18-22.1 160.18-17.85L160.18-17.85 160.18 0 153.18 0 153.18-16.5Q153.18-21.15 149.93-21.15L149.93-21.15Q148.33-21.15 147.16-20.18 145.98-19.2 145.98-17.45L145.98-17.45 145.98 0ZM175.58 0.6L175.58 0.6Q170.08 0.6 167.28-2.75 164.48-6.1 164.48-13.1L164.48-13.1Q164.48-20.1 167.28-23.48 170.08-26.85 175.58-26.85L175.58-26.85Q179.48-26.85 181.81-25.08 184.13-23.3 185.13-20.05L185.13-20.05 179.48-17.55Q179.23-19.45 178.33-20.38 177.43-21.3 175.58-21.3L175.58-21.3Q171.78-21.3 171.78-16.8L171.78-16.8 171.78-9.45Q171.78-4.95 175.58-4.95L175.58-4.95Q177.48-4.95 178.41-5.93 179.33-6.9 179.78-8.9L179.78-8.9 185.23-6.5Q183.08 0.6 175.58 0.6ZM201.73 0L197.48 0Q193.88 0 192.25-1.6 190.63-3.2 190.63-6.7L190.63-6.7 190.63-20.8 187.33-20.8 187.33-26.25 188.93-26.25Q190.33-26.25 190.83-26.85 191.33-27.45 191.33-28.8L191.33-28.8 191.33-33.35 197.63-33.35 197.63-26.25 202.23-26.25 202.23-20.8 197.63-20.8 197.63-5.45 201.73-5.45 201.73 0ZM209.98-29.45L209.98-29.45Q207.83-29.45 206.85-30.38 205.88-31.3 205.88-32.9L205.88-32.9 205.88-34Q205.88-35.6 206.85-36.52 207.83-37.45 209.98-37.45L209.98-37.45Q212.13-37.45 213.1-36.52 214.08-35.6 214.08-34L214.08-34 214.08-32.9Q214.08-31.3 213.1-30.38 212.13-29.45 209.98-29.45ZM206.48 0L206.48-26.25 213.48-26.25 213.48 0 206.48 0ZM229.22 0.6L229.22 0.6Q223.72 0.6 220.9-2.75 218.07-6.1 218.07-13.1L218.07-13.1Q218.07-20.1 220.9-23.48 223.72-26.85 229.22-26.85L229.22-26.85Q234.72-26.85 237.55-23.48 240.37-20.1 240.37-13.1L240.37-13.1Q240.37-6.1 237.55-2.75 234.72 0.6 229.22 0.6ZM229.22-4.95L229.22-4.95Q233.07-4.95 233.07-9.45L233.07-9.45 233.07-16.8Q233.07-21.3 229.22-21.3L229.22-21.3Q225.37-21.3 225.37-16.8L225.37-16.8 225.37-9.45Q225.37-4.95 229.22-4.95ZM251.97 0L244.97 0 244.97-26.25 251.97-26.25 251.97-21.8 252.77-21.8Q253.07-22.85 253.57-23.75 254.07-24.65 254.82-25.35 255.57-26.05 256.57-26.45 257.57-26.85 258.87-26.85L258.87-26.85Q262.42-26.85 264.3-24.48 266.17-22.1 266.17-17.85L266.17-17.85 266.17 0 259.17 0 259.17-16.5Q259.17-21.15 255.92-21.15L255.92-21.15Q254.32-21.15 253.15-20.18 251.97-19.2 251.97-17.45L251.97-17.45 251.97 0Z" opacity="1" transform="matrix(1,0,0,1,0,0)" fill="black" class="wordmark-text-0" id="SvgjsPath2158"></path></svg></g></svg></g></svg></g></svg></g><g transform="matrix(1,0,0,1,0,0.17768816512023733)"><svg viewBox="0 0 56.86092359113805 71.07526604809695" height="71.07526604809695" width="56.86092359113805"><g><svg version="1.1" xmlns="http://www.w3.org/2000/svg" xmlns:xlink="http://www.w3.org/1999/xlink" x="0" y="0" viewBox="0 0 80.001 100" enable-background="new 0 0 80.001 100" xml:space="preserve" width="56.86092359113805" height="71.07526604809695" class="icon-icon-0" data-fill-palette-color="accent" id="SvgjsSvg2157"><path d="M64.001 40v2H64h-7v-8h-3.714C60.104 31.608 65 25.134 65 17.5 65 7.835 57.165 0 47.5 0c-6.378 0-11.941 3.423-15 8.52C29.441 3.423 23.878 0 17.5 0 7.835 0 0 7.835 0 17.5 0 25.134 4.896 31.608 11.714 34H8v11H2v6h6v11h20v2h-5v4h3.14l-22.6 32h4.908l22.588-32h3.104l-22.6 32h4.908l22.588-32H42v-4h-5v-2h20v-8h7 0.001v2h16V40H64.001zM23.286 34c3.882-1.361 7.129-4.046 9.214-7.52 2.085 3.474 5.332 6.158 9.214 7.52H23.286z" fill="black"></path></svg></g></svg></g></svg></g><defs><mask></mask></defs></svg><rect width="395.52" height="57.382575749515915" fill="black" stroke="none" visibility="hidden"></rect></g></mask></svg><rect width="395.52" height="57.382575749515915" fill="black" stroke="none" visibility="hidden"></rect></g></mask><linearGradient x1="0" x2="1" y1="0.578" y2="0.595" id="d23f8b7c-82ed-43c1-8ba9-75b1d836d43c"><stop stop-color="#6ee2f5" offset="0"></stop><stop stop-color="#6454f0" offset="1"></stop></linearGradient><rect width="395.52" height="57.382575749515915" fill="url(#d23f8b7c-82ed-43c1-8ba9-75b1d836d43c)" mask="url(#79ed4bc0-cbc8-4305-bf38-1508cd664ece)" data-fill-palette-color="accent"></rect></svg><rect width="395.52" height="57.382575749515915" fill="none" stroke="none" visibility="hidden"></rect></g></svg></g></svg>